STARTFONT 2.1
FONT -FontForge-Saira SemiBold-Demi-R-Normal--22-160-100-100-P-114-ISO10646-1
SIZE 16 100 100
FONTBOUNDINGBOX 21 23 0 -5
COMMENT "Generated by fontforge, http://fontforge.sourceforge.net"
COMMENT "Copyright 2020 The Saira Project Authors (https://github.com/Omnibus-Type/Saira)"
STARTPROPERTIES 39
FOUNDRY "FontForge"
FAMILY_NAME "Saira SemiBold"
WEIGHT_NAME "Demi"
SLANT "R"
SETWIDTH_NAME "Normal"
ADD_STYLE_NAME ""
PIXEL_SIZE 22
POINT_SIZE 160
RESOLUTION_X 100
RESOLUTION_Y 100
SPACING "P"
AVERAGE_WIDTH 114
CHARSET_REGISTRY "ISO10646"
CHARSET_ENCODING "1"
FONTNAME_REGISTRY ""
CHARSET_COLLECTIONS "ISO10646-1"
FONT_NAME "Saira-SemiBold"
FACE_NAME "Saira SemiBold"
COPYRIGHT "Copyright 2020 The Saira Project Authors (https://github.com/Omnibus-Type/Saira)"
FONT_VERSION "1.101"
FONT_ASCENT 18
FONT_DESCENT 4
UNDERLINE_POSITION -4
UNDERLINE_THICKNESS 1
X_HEIGHT 10
CAP_HEIGHT 14
RAW_ASCENT 800
RAW_DESCENT 200
NORM_SPACE 5
RELATIVE_WEIGHT 60
RELATIVE_SETWIDTH 50
SUPERSCRIPT_X 0
SUPERSCRIPT_Y 7
SUPERSCRIPT_SIZE 13
SUBSCRIPT_X 0
SUBSCRIPT_Y 1
SUBSCRIPT_SIZE 13
AVG_LOWERCASE_WIDTH 115
AVG_UPPERCASE_WIDTH 144
ENDPROPERTIES
CHARS 128
STARTCHAR CR
ENCODING 13
SWIDTH 247 0
DWIDTH 5 0
BBX 1 1 0 0
BITMAP
00
ENDCHAR
STARTCHAR space
ENCODING 32
SWIDTH 247 0
DWIDTH 5 0
BBX 1 1 0 0
BITMAP
00
ENDCHAR
STARTCHAR exclam
ENCODING 33
SWIDTH 303 0
DWIDTH 7 0
BBX 3 15 2 0
BITMAP
E0
E0
E0
E0
E0
E0
E0
E0
E0
E0
00
00
E0
E0
E0
ENDCHAR
STARTCHAR quotedbl
ENCODING 34
SWIDTH 431 0
DWIDTH 9 0
BBX 7 5 1 10
BITMAP
EE
EE
6E
66
66
ENDCHAR
STARTCHAR numbersign
ENCODING 35
SWIDTH 748 0
DWIDTH 16 0
BBX 13 15 1 0
BITMAP
0630
0C30
0C60
0C60
7FF8
7FF8
18C0
18C0
18C0
FFF0
FFF0
3180
3180
3180
6380
ENDCHAR
STARTCHAR dollar
ENCODING 36
SWIDTH 538 0
DWIDTH 12 0
BBX 10 15 1 0
BITMAP
0C00
0E00
7F80
FF80
EC00
EC00
FF00
7F80
1F80
0DC0
0DC0
7F80
7F80
0C00
0C00
ENDCHAR
STARTCHAR percent
ENCODING 37
SWIDTH 860 0
DWIDTH 19 0
BBX 17 15 1 0
BITMAP
7C0C00
C41800
C61800
C63000
C66000
C66000
CCC000
7D9F00
01B180
033180
063180
063180
0C3180
083180
181F00
ENDCHAR
STARTCHAR ampersand
ENCODING 38
SWIDTH 737 0
DWIDTH 16 0
BBX 15 15 1 0
BITMAP
3FF0
7FF0
7000
E000
E000
7000
7E7E
3E7E
7E7E
E070
E070
E070
F070
7FF0
3FF0
ENDCHAR
STARTCHAR quotesingle
ENCODING 39
SWIDTH 252 0
DWIDTH 6 0
BBX 3 5 1 10
BITMAP
E0
E0
60
60
60
ENDCHAR
STARTCHAR parenleft
ENCODING 40
SWIDTH 339 0
DWIDTH 7 0
BBX 5 19 2 -3
BITMAP
38
70
60
E0
E0
C0
C0
C0
C0
C0
C0
C0
C0
C0
E0
E0
60
30
38
ENDCHAR
STARTCHAR parenright
ENCODING 41
SWIDTH 339 0
DWIDTH 7 0
BBX 6 19 0 -3
BITMAP
E0
30
38
18
18
1C
1C
1C
1C
1C
1C
1C
1C
1C
18
18
38
30
E0
ENDCHAR
STARTCHAR asterisk
ENCODING 42
SWIDTH 447 0
DWIDTH 10 0
BBX 8 8 1 7
BITMAP
18
9A
FF
3C
3C
FF
9A
18
ENDCHAR
STARTCHAR plus
ENCODING 43
SWIDTH 540 0
DWIDTH 12 0
BBX 8 9 2 1
BITMAP
18
18
18
FF
FF
FF
18
18
18
ENDCHAR
STARTCHAR comma
ENCODING 44
SWIDTH 273 0
DWIDTH 6 0
BBX 4 6 1 -3
BITMAP
F0
F0
F0
30
60
E0
ENDCHAR
STARTCHAR hyphen
ENCODING 45
SWIDTH 369 0
DWIDTH 8 0
BBX 6 3 1 5
BITMAP
FC
FC
FC
ENDCHAR
STARTCHAR period
ENCODING 46
SWIDTH 273 0
DWIDTH 6 0
BBX 4 3 1 0
BITMAP
F0
F0
F0
ENDCHAR
STARTCHAR slash
ENCODING 47
SWIDTH 392 0
DWIDTH 9 0
BBX 9 17 0 -1
BITMAP
0380
0300
0700
0600
0E00
0E00
0C00
1C00
1C00
1800
3800
3000
3000
7000
6000
E000
E000
ENDCHAR
STARTCHAR zero
ENCODING 48
SWIDTH 666 0
DWIDTH 15 0
BBX 12 15 1 0
BITMAP
3FE0
7FF0
70F0
F070
F070
E070
E070
E070
E070
E070
F070
7070
78F0
7FF0
3FC0
ENDCHAR
STARTCHAR one
ENCODING 49
SWIDTH 389 0
DWIDTH 9 0
BBX 6 15 1 0
BITMAP
3C
FC
FC
FC
3C
3C
3C
3C
3C
3C
3C
3C
3C
3C
3C
ENDCHAR
STARTCHAR two
ENCODING 50
SWIDTH 611 0
DWIDTH 13 0
BBX 11 15 1 0
BITMAP
7FC0
7FE0
81E0
00E0
00E0
01E0
07E0
1FC0
7F00
7800
F000
E000
FFE0
FFE0
FFE0
ENDCHAR
STARTCHAR three
ENCODING 51
SWIDTH 607 0
DWIDTH 13 0
BBX 11 15 1 0
BITMAP
FF80
FFC0
81E0
00E0
00E0
01E0
1FC0
1F80
1FC0
00E0
00E0
00E0
C1E0
FFC0
FF80
ENDCHAR
STARTCHAR four
ENCODING 52
SWIDTH 647 0
DWIDTH 14 0
BBX 12 15 1 0
BITMAP
0780
0F00
0E00
1E00
1C00
38C0
38C0
70C0
F0C0
FFF0
FFF0
FFF0
01C0
01C0
01C0
ENDCHAR
STARTCHAR five
ENCODING 53
SWIDTH 623 0
DWIDTH 14 0
BBX 10 15 2 0
BITMAP
FF80
FF80
E000
E000
E000
E000
FF80
FFC0
01C0
01C0
01C0
01C0
83C0
FFC0
FF80
ENDCHAR
STARTCHAR six
ENCODING 54
SWIDTH 664 0
DWIDTH 15 0
BBX 12 15 1 0
BITMAP
3FF0
7FF0
7810
7000
F000
F000
FFE0
FFF0
F070
F070
F070
7070
78F0
7FF0
3FE0
ENDCHAR
STARTCHAR seven
ENCODING 55
SWIDTH 569 0
DWIDTH 13 0
BBX 11 15 1 0
BITMAP
FFE0
FFE0
01E0
01C0
03C0
0380
0780
0700
0700
0E00
0E00
1E00
1C00
3C00
3800
ENDCHAR
STARTCHAR eight
ENCODING 56
SWIDTH 682 0
DWIDTH 15 0
BBX 13 15 1 0
BITMAP
3FE0
7FF0
7070
F078
7070
7070
7FF0
3FE0
7FF0
7070
F078
F078
78F0
7FF0
3FE0
ENDCHAR
STARTCHAR nine
ENCODING 57
SWIDTH 664 0
DWIDTH 15 0
BBX 12 15 1 0
BITMAP
3FE0
7FE0
F0F0
E070
E070
E070
F0F0
7FF0
3FF0
0070
0070
0070
61F0
7FE0
7FC0
ENDCHAR
STARTCHAR colon
ENCODING 58
SWIDTH 273 0
DWIDTH 6 0
BBX 4 11 1 0
BITMAP
F0
F0
F0
00
00
00
00
00
F0
F0
F0
ENDCHAR
STARTCHAR semicolon
ENCODING 59
SWIDTH 273 0
DWIDTH 6 0
BBX 4 14 1 -3
BITMAP
F0
F0
F0
00
00
00
00
00
F0
F0
F0
30
60
E0
ENDCHAR
STARTCHAR less
ENCODING 60
SWIDTH 541 0
DWIDTH 12 0
BBX 8 9 2 1
BITMAP
01
0F
3E
F8
C0
F8
3F
0F
01
ENDCHAR
STARTCHAR equal
ENCODING 61
SWIDTH 540 0
DWIDTH 12 0
BBX 8 7 2 2
BITMAP
FF
FF
00
00
00
FF
FF
ENDCHAR
STARTCHAR greater
ENCODING 62
SWIDTH 541 0
DWIDTH 12 0
BBX 8 9 2 1
BITMAP
80
F0
7C
1F
03
1F
FC
E0
80
ENDCHAR
STARTCHAR question
ENCODING 63
SWIDTH 511 0
DWIDTH 11 0
BBX 9 15 1 0
BITMAP
FF00
FF00
0780
0380
0380
0780
1F00
3C00
3800
3800
0000
0000
3800
3800
3800
ENDCHAR
STARTCHAR at
ENCODING 64
SWIDTH 936 0
DWIDTH 21 0
BBX 17 17 2 -2
BITMAP
3FFE00
600300
C00100
800180
87F180
87F180
803880
803880
8FF880
8E3880
8C3980
8E7980
8FFF00
820000
C00000
600000
3FF800
ENDCHAR
STARTCHAR A
ENCODING 65
SWIDTH 686 0
DWIDTH 15 0
BBX 15 15 0 0
BITMAP
07C0
07C0
07E0
0EE0
0EE0
0EF0
1C70
1C70
1C78
3FF8
3FF8
3FFC
701C
701C
F01E
ENDCHAR
STARTCHAR B
ENCODING 66
SWIDTH 675 0
DWIDTH 15 0
BBX 12 15 2 0
BITMAP
FFC0
FFE0
E1E0
E0E0
E0E0
E0E0
FFC0
FFC0
FFE0
E0E0
E0F0
E0F0
FFE0
FFE0
FFC0
ENDCHAR
STARTCHAR C
ENCODING 67
SWIDTH 571 0
DWIDTH 13 0
BBX 11 15 1 0
BITMAP
3FC0
7FC0
7800
7000
F000
F000
E000
E000
E000
F000
F000
7000
7820
7FE0
1FE0
ENDCHAR
STARTCHAR D
ENCODING 68
SWIDTH 683 0
DWIDTH 15 0
BBX 12 15 2 0
BITMAP
FFC0
FFE0
E1E0
E0E0
E0F0
E0F0
E070
E070
E070
E0F0
E0F0
E0E0
FFE0
FFE0
FF80
ENDCHAR
STARTCHAR E
ENCODING 69
SWIDTH 607 0
DWIDTH 13 0
BBX 10 15 2 0
BITMAP
FFC0
FFC0
E000
E000
E000
E000
FF80
FF80
FF80
E000
E000
E000
FFC0
FFC0
FFC0
ENDCHAR
STARTCHAR F
ENCODING 70
SWIDTH 569 0
DWIDTH 13 0
BBX 10 15 2 0
BITMAP
FFC0
FFC0
E000
E000
E000
E000
E000
FF80
FF80
E000
E000
E000
E000
E000
E000
ENDCHAR
STARTCHAR G
ENCODING 71
SWIDTH 669 0
DWIDTH 15 0
BBX 12 15 1 0
BITMAP
1FF0
7FF0
7810
7000
F000
F000
E1F0
E1F0
E1F0
F070
7070
7070
7870
3FF0
1FF0
ENDCHAR
STARTCHAR H
ENCODING 72
SWIDTH 722 0
DWIDTH 16 0
BBX 12 15 2 0
BITMAP
E070
E070
E070
E070
E070
E070
FFF0
FFF0
FFF0
E070
E070
E070
E070
E070
E070
ENDCHAR
STARTCHAR I
ENCODING 73
SWIDTH 306 0
DWIDTH 7 0
BBX 3 15 2 0
BITMAP
E0
E0
E0
E0
E0
E0
E0
E0
E0
E0
E0
E0
E0
E0
E0
ENDCHAR
STARTCHAR J
ENCODING 74
SWIDTH 389 0
DWIDTH 9 0
BBX 6 15 1 0
BITMAP
1C
1C
1C
1C
1C
1C
1C
1C
1C
1C
1C
1C
7C
F8
F0
ENDCHAR
STARTCHAR K
ENCODING 75
SWIDTH 678 0
DWIDTH 15 0
BBX 13 15 2 0
BITMAP
E078
E0E0
E1E0
E3C0
E380
E700
FF00
FE00
FF00
E780
E380
E1C0
E1E0
E0F0
E078
ENDCHAR
STARTCHAR L
ENCODING 76
SWIDTH 538 0
DWIDTH 12 0
BBX 9 15 2 0
BITMAP
E000
E000
E000
E000
E000
E000
E000
E000
E000
E000
E000
E000
FF80
FF80
FF80
ENDCHAR
STARTCHAR M
ENCODING 77
SWIDTH 899 0
DWIDTH 20 0
BBX 16 15 2 0
BITMAP
F01F
F81F
F81F
F83F
FC3F
FC37
EE77
EE77
EEE7
E7E7
E7E7
E7C7
E3C7
E387
E187
ENDCHAR
STARTCHAR N
ENCODING 78
SWIDTH 723 0
DWIDTH 16 0
BBX 12 15 2 0
BITMAP
E070
F070
F870
F870
FC70
FE70
EE70
EF70
E7F0
E3F0
E3F0
E1F0
E0F0
E0F0
E070
ENDCHAR
STARTCHAR O
ENCODING 79
SWIDTH 707 0
DWIDTH 16 0
BBX 13 15 1 0
BITMAP
3FE0
7FF0
7078
7038
F038
F038
E038
E038
E038
F038
F038
7038
7878
7FF0
3FE0
ENDCHAR
STARTCHAR P
ENCODING 80
SWIDTH 647 0
DWIDTH 14 0
BBX 11 15 2 0
BITMAP
FFC0
FFE0
E1E0
E0E0
E0E0
E0E0
E0E0
FFE0
FFE0
FF80
E000
E000
E000
E000
E000
ENDCHAR
STARTCHAR Q
ENCODING 81
SWIDTH 707 0
DWIDTH 16 0
BBX 14 18 1 -3
BITMAP
3FE0
7FF0
7078
7038
F038
F038
E038
E038
E038
F038
F7B8
73F8
79F8
7FF0
3FF0
0070
0038
003C
ENDCHAR
STARTCHAR R
ENCODING 82
SWIDTH 676 0
DWIDTH 15 0
BBX 12 15 2 0
BITMAP
FFC0
FFE0
E1E0
E0E0
E0F0
E0F0
E0E0
FFE0
FFC0
E3C0
E1C0
E1C0
E0E0
E0E0
E0F0
ENDCHAR
STARTCHAR S
ENCODING 83
SWIDTH 620 0
DWIDTH 14 0
BBX 11 15 1 0
BITMAP
3FE0
7FE0
F020
E000
E000
F000
FFC0
7FE0
0FE0
00E0
00E0
00E0
41E0
7FE0
7FC0
ENDCHAR
STARTCHAR T
ENCODING 84
SWIDTH 582 0
DWIDTH 13 0
BBX 12 15 0 0
BITMAP
FFF0
FFF0
FFF0
0700
0700
0700
0700
0700
0700
0700
0700
0700
0700
0700
0700
ENDCHAR
STARTCHAR U
ENCODING 85
SWIDTH 698 0
DWIDTH 15 0
BBX 12 15 2 0
BITMAP
E070
E070
E070
E070
E070
E070
E070
E070
E070
E070
E0F0
E0E0
F1E0
FFE0
3FC0
ENDCHAR
STARTCHAR V
ENCODING 86
SWIDTH 663 0
DWIDTH 15 0
BBX 14 15 0 0
BITMAP
F01C
701C
7038
3838
3838
3870
3C70
1C70
1CE0
1EE0
0EE0
0FC0
0FC0
07C0
07C0
ENDCHAR
STARTCHAR W
ENCODING 87
SWIDTH 989 0
DWIDTH 22 0
BBX 21 15 0 0
BITMAP
F07838
707838
707838
70FC70
38FC70
38FC70
38DC70
39CEE0
1DCEE0
1D8EE0
1D86E0
1F87C0
0F87C0
0F07C0
0F03C0
ENDCHAR
STARTCHAR X
ENCODING 88
SWIDTH 679 0
DWIDTH 15 0
BBX 15 15 0 0
BITMAP
F81C
3838
3C78
1E70
0EE0
0FE0
07C0
0780
07C0
0FE0
1EF0
1C70
3C78
783C
F01E
ENDCHAR
STARTCHAR Y
ENCODING 89
SWIDTH 624 0
DWIDTH 14 0
BBX 14 15 0 0
BITMAP
F03C
7038
7870
3870
1CE0
1CE0
0FC0
0FC0
0780
0700
0700
0700
0700
0700
0700
ENDCHAR
STARTCHAR Z
ENCODING 90
SWIDTH 611 0
DWIDTH 13 0
BBX 11 15 1 0
BITMAP
FFE0
FFE0
01E0
01C0
03C0
0780
0F00
0F00
1E00
3C00
3800
7800
FFE0
FFE0
FFE0
ENDCHAR
STARTCHAR bracketleft
ENCODING 91
SWIDTH 366 0
DWIDTH 8 0
BBX 5 19 2 -3
BITMAP
F8
F8
C0
C0
C0
C0
C0
C0
C0
C0
C0
C0
C0
C0
C0
C0
C0
F8
F8
ENDCHAR
STARTCHAR backslash
ENCODING 92
SWIDTH 392 0
DWIDTH 9 0
BBX 9 17 0 -1
BITMAP
E000
E000
6000
7000
3000
3000
3800
1800
1C00
1C00
0C00
0E00
0600
0600
0700
0300
0380
ENDCHAR
STARTCHAR bracketright
ENCODING 93
SWIDTH 366 0
DWIDTH 8 0
BBX 5 19 1 -3
BITMAP
F8
F8
18
18
18
18
18
18
18
18
18
18
18
18
18
18
18
F8
F8
ENDCHAR
STARTCHAR asciicircum
ENCODING 94
SWIDTH 442 0
DWIDTH 10 0
BBX 8 6 1 10
BITMAP
38
3C
6C
66
E6
C3
ENDCHAR
STARTCHAR underscore
ENCODING 95
SWIDTH 378 0
DWIDTH 8 0
BBX 8 2 0 -4
BITMAP
FF
FF
ENDCHAR
STARTCHAR grave
ENCODING 96
SWIDTH 228 0
DWIDTH 5 0
BBX 5 3 0 13
BITMAP
E0
70
38
ENDCHAR
STARTCHAR a
ENCODING 97
SWIDTH 565 0
DWIDTH 12 0
BBX 10 11 1 0
BITMAP
7F80
7FC0
01C0
01C0
3FC0
FFC0
E1C0
E1C0
E3C0
FFC0
7DC0
ENDCHAR
STARTCHAR b
ENCODING 98
SWIDTH 585 0
DWIDTH 13 0
BBX 10 16 2 0
BITMAP
C000
C000
C000
C000
C000
DF80
FF80
E380
E1C0
C1C0
C1C0
E1C0
E1C0
E380
FF80
DF00
ENDCHAR
STARTCHAR c
ENCODING 99
SWIDTH 462 0
DWIDTH 10 0
BBX 8 11 1 0
BITMAP
7F
7F
F0
E0
E0
E0
E0
E0
F0
7F
3F
ENDCHAR
STARTCHAR d
ENCODING 100
SWIDTH 585 0
DWIDTH 13 0
BBX 10 16 1 0
BITMAP
01C0
01C0
01C0
01C0
01C0
7FC0
7FC0
F1C0
E1C0
E1C0
E1C0
E1C0
E1C0
F3C0
7FC0
3EC0
ENDCHAR
STARTCHAR e
ENCODING 101
SWIDTH 557 0
DWIDTH 12 0
BBX 10 11 1 0
BITMAP
7F80
7FC0
E1C0
E1C0
FFC0
FFC0
E000
E000
F000
7FC0
3FC0
ENDCHAR
STARTCHAR f
ENCODING 102
SWIDTH 404 0
DWIDTH 9 0
BBX 8 16 0 0
BITMAP
1F
1F
1C
1C
1C
FF
FF
1C
1C
1C
1C
1C
1C
1C
1C
1C
ENDCHAR
STARTCHAR g
ENCODING 103
SWIDTH 585 0
DWIDTH 13 0
BBX 10 16 1 -5
BITMAP
7EC0
7FC0
F1C0
E1C0
E1C0
E1C0
E1C0
E1C0
F3C0
7FC0
3DC0
01C0
01C0
7FC0
7F80
1C00
ENDCHAR
STARTCHAR h
ENCODING 104
SWIDTH 593 0
DWIDTH 13 0
BBX 9 16 2 0
BITMAP
C000
C000
C000
C000
C000
DF80
FF80
E380
E180
C180
C180
C180
C180
C180
C180
C180
ENDCHAR
STARTCHAR i
ENCODING 105
SWIDTH 275 0
DWIDTH 6 0
BBX 3 16 2 0
BITMAP
E0
E0
00
00
00
C0
C0
C0
C0
C0
C0
C0
C0
C0
C0
C0
ENDCHAR
STARTCHAR j
ENCODING 106
SWIDTH 275 0
DWIDTH 6 0
BBX 5 20 0 -4
BITMAP
38
38
00
00
00
30
30
30
30
30
30
30
30
30
30
30
30
30
F0
F0
ENDCHAR
STARTCHAR k
ENCODING 107
SWIDTH 558 0
DWIDTH 12 0
BBX 10 16 2 0
BITMAP
C000
C000
C000
C000
C040
C380
C780
C700
CE00
FC00
FC00
FE00
CE00
C700
C380
C3C0
ENDCHAR
STARTCHAR l
ENCODING 108
SWIDTH 275 0
DWIDTH 6 0
BBX 2 16 2 0
BITMAP
C0
C0
C0
C0
C0
C0
C0
C0
C0
C0
C0
C0
C0
C0
C0
C0
ENDCHAR
STARTCHAR m
ENCODING 109
SWIDTH 872 0
DWIDTH 19 0
BBX 16 11 2 0
BITMAP
DF7E
FFFE
E3CF
E387
C387
C387
C387
C387
C387
C387
C387
ENDCHAR
STARTCHAR n
ENCODING 110
SWIDTH 593 0
DWIDTH 13 0
BBX 9 11 2 0
BITMAP
DF80
FF80
E380
E180
C180
C180
C180
C180
C180
C180
C180
ENDCHAR
STARTCHAR o
ENCODING 111
SWIDTH 574 0
DWIDTH 13 0
BBX 10 11 1 0
BITMAP
7F80
7FC0
E1C0
E1C0
E0C0
E0C0
E0C0
E1C0
F1C0
7FC0
7F80
ENDCHAR
STARTCHAR p
ENCODING 112
SWIDTH 585 0
DWIDTH 13 0
BBX 10 15 2 -4
BITMAP
DF80
FF80
E380
E1C0
C1C0
C1C0
C1C0
E1C0
F380
FF80
DF00
C000
C000
C000
C000
ENDCHAR
STARTCHAR q
ENCODING 113
SWIDTH 586 0
DWIDTH 13 0
BBX 10 15 1 -4
BITMAP
7EC0
7FC0
F1C0
E1C0
E1C0
E1C0
E1C0
E1C0
F3C0
7FC0
7FC0
01C0
01C0
01C0
01C0
ENDCHAR
STARTCHAR r
ENCODING 114
SWIDTH 395 0
DWIDTH 9 0
BBX 6 11 2 0
BITMAP
DC
DC
F8
E0
E0
E0
C0
C0
C0
C0
C0
ENDCHAR
STARTCHAR s
ENCODING 115
SWIDTH 499 0
DWIDTH 11 0
BBX 9 11 1 0
BITMAP
7F00
FF00
E000
E000
FE00
7F80
0F80
0380
0380
FF80
FF00
ENDCHAR
STARTCHAR t
ENCODING 116
SWIDTH 390 0
DWIDTH 9 0
BBX 8 14 0 0
BITMAP
1C
1C
1C
FF
FF
1C
1C
1C
1C
1C
1C
1C
1C
1C
ENDCHAR
STARTCHAR u
ENCODING 117
SWIDTH 593 0
DWIDTH 13 0
BBX 9 11 2 0
BITMAP
C180
C180
C180
C180
C180
C180
C180
E380
E380
FF80
7D80
ENDCHAR
STARTCHAR v
ENCODING 118
SWIDTH 541 0
DWIDTH 12 0
BBX 12 11 0 0
BITMAP
F0F0
70E0
70E0
31C0
39C0
39C0
1980
1F80
1F80
0F00
0F00
ENDCHAR
STARTCHAR w
ENCODING 119
SWIDTH 832 0
DWIDTH 18 0
BBX 18 11 0 0
BITMAP
F0E1C0
71E180
71E380
31F380
39F300
3BB300
3B3700
1B3F00
1F3E00
1F1E00
0E1E00
ENDCHAR
STARTCHAR x
ENCODING 120
SWIDTH 558 0
DWIDTH 12 0
BBX 12 11 0 0
BITMAP
70F0
39E0
3DC0
1F80
0F00
0F00
0F80
1F80
39C0
78E0
F0F0
ENDCHAR
STARTCHAR y
ENCODING 121
SWIDTH 593 0
DWIDTH 13 0
BBX 9 16 2 -5
BITMAP
C180
C180
C180
C180
C180
C180
C180
E380
F780
FF80
7D80
0180
0380
FF80
FF00
1800
ENDCHAR
STARTCHAR z
ENCODING 122
SWIDTH 521 0
DWIDTH 11 0
BBX 9 11 1 0
BITMAP
FF80
FF80
0780
0700
0E00
1C00
3C00
7800
F000
FF80
FF80
ENDCHAR
STARTCHAR braceleft
ENCODING 123
SWIDTH 351 0
DWIDTH 8 0
BBX 6 19 1 -3
BITMAP
1C
38
30
30
30
30
30
70
60
C0
70
70
30
30
30
30
30
38
1C
ENDCHAR
STARTCHAR bar
ENCODING 124
SWIDTH 290 0
DWIDTH 6 0
BBX 2 20 2 -4
BITMAP
C0
C0
C0
C0
C0
C0
C0
C0
C0
C0
C0
C0
C0
C0
C0
C0
C0
C0
C0
C0
ENDCHAR
STARTCHAR braceright
ENCODING 125
SWIDTH 351 0
DWIDTH 8 0
BBX 7 19 0 -3
BITMAP
F0
30
38
18
18
18
18
18
1C
06
1C
18
18
18
18
18
38
30
F0
ENDCHAR
STARTCHAR asciitilde
ENCODING 126
SWIDTH 497 0
DWIDTH 11 0
BBX 9 3 1 5
BITMAP
7980
FF80
C700
ENDCHAR
STARTCHAR uni00A0
ENCODING 160
SWIDTH 247 0
DWIDTH 5 0
BBX 1 1 0 0
BITMAP
00
ENDCHAR
STARTCHAR exclamdown
ENCODING 161
SWIDTH 290 0
DWIDTH 6 0
BBX 4 15 1 -4
BITMAP
70
70
70
00
00
60
60
70
70
70
70
70
70
70
F0
ENDCHAR
STARTCHAR cent
ENCODING 162
SWIDTH 468 0
DWIDTH 10 0
BBX 8 15 1 0
BITMAP
0C
0E
3F
7F
7C
EC
EC
EC
EC
EC
FC
7F
7F
0C
0C
ENDCHAR
STARTCHAR sterling
ENCODING 163
SWIDTH 599 0
DWIDTH 13 0
BBX 11 15 1 0
BITMAP
1FE0
3FE0
3C00
3800
3800
3800
FF80
FF80
3800
3800
3800
3800
FFE0
FFE0
FFE0
ENDCHAR
STARTCHAR currency
ENCODING 164
SWIDTH 679 0
DWIDTH 15 0
BBX 13 15 1 0
BITMAP
4010
EF38
7FF0
3FE0
70F0
7070
7070
7070
7070
7070
78E0
3FE0
7FF0
E038
4010
ENDCHAR
STARTCHAR yen
ENCODING 165
SWIDTH 628 0
DWIDTH 14 0
BBX 13 15 0 0
BITMAP
F038
7070
3870
38E0
1CE0
7FF8
7FF8
0F80
0780
7FF8
0700
0700
0700
0700
0700
ENDCHAR
STARTCHAR brokenbar
ENCODING 166
SWIDTH 290 0
DWIDTH 6 0
BBX 2 20 2 -4
BITMAP
C0
C0
C0
C0
C0
C0
C0
00
00
00
00
00
C0
C0
C0
C0
C0
C0
C0
C0
ENDCHAR
STARTCHAR section
ENCODING 167
SWIDTH 692 0
DWIDTH 15 0
BBX 13 19 1 -4
BITMAP
1FE0
3FE0
3800
3800
3C00
7F80
FFF0
E3F8
E038
E038
F838
7FB8
1FF0
03E0
00E0
00E0
3FE0
3FE0
3F80
ENDCHAR
STARTCHAR dieresis
ENCODING 168
SWIDTH 320 0
DWIDTH 7 0
BBX 7 3 0 13
BITMAP
C6
C6
C6
ENDCHAR
STARTCHAR copyright
ENCODING 169
SWIDTH 742 0
DWIDTH 16 0
BBX 13 15 2 0
BITMAP
7FE0
C030
8010
8790
8F98
9818
9818
9818
9818
9818
8F90
8790
8010
C030
3FE0
ENDCHAR
STARTCHAR ordfeminine
ENCODING 170
SWIDTH 414 0
DWIDTH 9 0
BBX 7 8 1 7
BITMAP
FC
CE
06
7E
E6
C6
FE
F6
ENDCHAR
STARTCHAR guillemotleft
ENCODING 171
SWIDTH 493 0
DWIDTH 11 0
BBX 9 9 1 2
BITMAP
3B80
7300
6600
EE00
CC00
EE00
6600
3300
3B80
ENDCHAR
STARTCHAR logicalnot
ENCODING 172
SWIDTH 539 0
DWIDTH 12 0
BBX 8 6 2 1
BITMAP
FF
FF
FF
03
03
03
ENDCHAR
STARTCHAR uni00AD
ENCODING 173
SWIDTH 369 0
DWIDTH 8 0
BBX 6 3 1 5
BITMAP
FC
FC
FC
ENDCHAR
STARTCHAR registered
ENCODING 174
SWIDTH 742 0
DWIDTH 16 0
BBX 13 15 2 0
BITMAP
7FE0
C030
8010
9F10
9F98
9898
9898
9F98
9F18
9998
9990
98D0
8010
C030
3FE0
ENDCHAR
STARTCHAR macron
ENCODING 175
SWIDTH 315 0
DWIDTH 7 0
BBX 7 2 0 13
BITMAP
FE
FE
ENDCHAR
STARTCHAR degree
ENCODING 176
SWIDTH 394 0
DWIDTH 9 0
BBX 6 6 1 9
BITMAP
7C
C4
C4
C4
CC
7C
ENDCHAR
STARTCHAR plusminus
ENCODING 177
SWIDTH 540 0
DWIDTH 12 0
BBX 8 13 2 0
BITMAP
18
18
18
FF
FF
FF
18
18
18
00
00
FF
FF
ENDCHAR
STARTCHAR uni00B2
ENCODING 178
SWIDTH 353 0
DWIDTH 8 0
BBX 6 9 1 9
BITMAP
F8
FC
0C
0C
78
E0
C0
FC
FC
ENDCHAR
STARTCHAR uni00B3
ENCODING 179
SWIDTH 350 0
DWIDTH 8 0
BBX 6 9 1 9
BITMAP
F0
FC
0C
0C
70
0C
0C
FC
F8
ENDCHAR
STARTCHAR acute
ENCODING 180
SWIDTH 228 0
DWIDTH 5 0
BBX 5 3 0 13
BITMAP
38
70
E0
ENDCHAR
STARTCHAR uni00B5
ENCODING 181
SWIDTH 593 0
DWIDTH 13 0
BBX 9 15 2 -4
BITMAP
C180
C180
C180
C180
C180
C180
C180
E380
E380
FF80
FD80
C000
C000
C000
C000
ENDCHAR
STARTCHAR paragraph
ENCODING 182
SWIDTH 620 0
DWIDTH 14 0
BBX 11 18 1 -3
BITMAP
7F60
7F60
FF60
FF60
FF60
FF60
FF60
FF60
7F60
7F60
0360
0360
0360
0360
0360
0360
0360
0360
ENDCHAR
STARTCHAR periodcentered
ENCODING 183
SWIDTH 273 0
DWIDTH 6 0
BBX 4 3 1 5
BITMAP
F0
F0
F0
ENDCHAR
STARTCHAR cedilla
ENCODING 184
SWIDTH 164 0
DWIDTH 4 0
BBX 4 4 0 -4
BITMAP
70
60
60
E0
ENDCHAR
STARTCHAR uni00B9
ENCODING 185
SWIDTH 229 0
DWIDTH 5 0
BBX 4 9 0 9
BITMAP
30
F0
F0
30
30
30
30
30
30
ENDCHAR
STARTCHAR ordmasculine
ENCODING 186
SWIDTH 430 0
DWIDTH 9 0
BBX 7 8 1 7
BITMAP
7E
E6
C6
C6
C6
C6
FE
7E
ENDCHAR
STARTCHAR guillemotright
ENCODING 187
SWIDTH 492 0
DWIDTH 11 0
BBX 9 9 1 2
BITMAP
EE00
6600
3300
3B80
1980
3300
7300
6600
CC00
ENDCHAR
STARTCHAR onequarter
ENCODING 188
SWIDTH 687 0
DWIDTH 15 0
BBX 15 15 0 0
BITMAP
7038
F030
B060
30C0
30C0
3180
3300
3330
0660
0C60
0CCC
18CC
30FE
300C
600C
ENDCHAR
STARTCHAR onehalf
ENCODING 189
SWIDTH 738 0
DWIDTH 16 0
BBX 15 15 0 0
BITMAP
7038
F030
B060
30C0
30C0
3180
3300
337E
0606
0C06
0C0E
1838
3060
307E
607E
ENDCHAR
STARTCHAR threequarters
ENCODING 190
SWIDTH 807 0
DWIDTH 18 0
BBX 16 15 1 0
BITMAP
F80C
0C18
0C18
7830
7860
0C60
0CC0
F98C
0198
0310
0632
0662
0C7F
1806
3806
ENDCHAR
STARTCHAR questiondown
ENCODING 191
SWIDTH 451 0
DWIDTH 10 0
BBX 9 15 1 -4
BITMAP
0E00
0E00
0E00
0000
0000
0E00
0E00
3E00
7C00
F000
E000
E000
F980
7F80
3F80
ENDCHAR
ENDFONT
